<svg width="32" height="33" viewBox="0 0 32 33" fill="none" xmlns="http://www.w3.org/2000/svg">
<path fill-rule="evenodd" clip-rule="evenodd" d="M4.68506 16.3082C4.68506 22.1319 8.8565 26.974 14.3115 27.9556L14.3759 27.903C14.3544 27.8988 14.3329 27.8945 14.3115 27.8901V19.5799H11.4235V16.3082H14.3115V13.6908C14.3115 10.7463 16.1726 9.11039 18.8038 9.11039C19.6381 9.11039 20.5365 9.24126 21.3708 9.37213V12.3821H19.8948C18.4829 12.3821 18.162 13.1019 18.162 14.018V16.3082H21.2425L20.7291 19.5799H18.162V27.8901C18.1406 27.8945 18.1191 27.8988 18.0976 27.903L18.162 27.9556C23.617 26.974 27.7884 22.1319 27.7884 16.3082C27.7884 9.83022 22.5902 4.53003 16.2368 4.53003C9.88332 4.53003 4.68506 9.83022 4.68506 16.3082Z" fill="#4A4A4A"/>
</svg>
