<svg width="32" height="33" viewBox="0 0 32 33" fill="none" xmlns="http://www.w3.org/2000/svg">
<path d="M16.3473 4.88696C13.3052 4.88696 12.9234 4.90053 11.7286 4.95597C10.5361 5.01165 9.72215 5.20414 9.00994 5.48658C8.27322 5.7783 7.64828 6.16853 7.02567 6.8036C6.4026 7.43843 6.01989 8.07564 5.73285 8.82659C5.45516 9.55303 5.26613 10.3832 5.21246 11.5986C5.15902 12.8169 5.14502 13.2064 5.14502 16.3082C5.14502 19.4101 5.15855 19.7982 5.21269 21.0164C5.26753 22.2323 5.45632 23.0623 5.73309 23.7885C6.01942 24.5397 6.40213 25.1769 7.02497 25.8117C7.64734 26.447 8.27228 26.8382 9.00853 27.1299C9.72122 27.4123 10.5354 27.6048 11.7277 27.6605C12.9225 27.716 13.304 27.7295 16.3459 27.7295C19.3882 27.7295 19.7688 27.716 20.9636 27.6605C22.1561 27.6048 22.971 27.4123 23.6836 27.1299C24.4201 26.8382 25.0441 26.447 25.6665 25.8117C26.2896 25.1769 26.6723 24.5397 26.9593 23.7887C27.2347 23.0623 27.4237 22.2321 27.4797 21.0167C27.5334 19.7984 27.5474 19.4101 27.5474 16.3082C27.5474 13.2064 27.5334 12.8171 27.4797 11.5989C27.4237 10.383 27.2347 9.55303 26.9593 8.82683C26.6723 8.07564 26.2896 7.43843 25.6665 6.8036C25.0434 6.16829 24.4204 5.77806 23.6829 5.48658C22.9689 5.20414 22.1544 5.01165 20.962 4.95597C19.7672 4.90053 19.3868 4.88696 16.3438 4.88696H16.3473ZM15.3424 6.94517C15.6406 6.9447 15.9734 6.94517 16.3473 6.94517C19.338 6.94517 19.6925 6.95612 20.8735 7.01085C21.9656 7.06177 22.5584 7.24784 22.9532 7.40417C23.4759 7.61118 23.8486 7.85864 24.2404 8.25838C24.6325 8.65813 24.8752 9.03884 25.0787 9.57183C25.232 9.97395 25.4147 10.5783 25.4644 11.6919C25.5181 12.8959 25.5298 13.2576 25.5298 16.3056C25.5298 19.3537 25.5181 19.7154 25.4644 20.9193C25.4145 22.0329 25.232 22.6373 25.0787 23.0394C24.8756 23.5724 24.6325 23.9519 24.2404 24.3514C23.8484 24.7512 23.4762 24.9986 22.9532 25.2057C22.5588 25.3627 21.9656 25.5483 20.8735 25.5992C19.6927 25.6539 19.338 25.6658 16.3473 25.6658C13.3563 25.6658 13.0018 25.6539 11.821 25.5992C10.7289 25.5478 10.1361 25.3617 9.74105 25.2054C9.21833 24.9984 8.84495 24.7509 8.4529 24.3512C8.06086 23.9515 7.81816 23.5717 7.61467 23.0385C7.46136 22.6363 7.27863 22.032 7.22893 20.9184C7.17526 19.7144 7.16452 19.3527 7.16452 16.3028C7.16452 13.2528 7.17526 12.893 7.22893 11.689C7.27887 10.5755 7.46136 9.9711 7.61467 9.5685C7.8177 9.0355 8.06086 8.6548 8.4529 8.25505C8.84495 7.85531 9.21833 7.60784 9.74105 7.40036C10.1359 7.24332 10.7289 7.05772 11.821 7.00656C12.8543 6.95897 13.2548 6.9447 15.3424 6.94232V6.94517ZM22.3264 8.84158C21.5843 8.84158 20.9823 9.45476 20.9823 10.2117C20.9823 10.9683 21.5843 11.5822 22.3264 11.5822C23.0685 11.5822 23.6706 10.9683 23.6706 10.2117C23.6706 9.455 23.0685 8.84111 22.3264 8.84111V8.84158ZM16.3473 10.4429C13.1705 10.4429 10.5949 13.0691 10.5949 16.3082C10.5949 19.5474 13.1705 22.1724 16.3473 22.1724C19.524 22.1724 22.0987 19.5474 22.0987 16.3082C22.0987 13.0691 19.5238 10.4429 16.347 10.4429H16.3473ZM16.3473 12.5011C18.4092 12.5011 20.081 14.2055 20.081 16.3082C20.081 18.4107 18.4092 20.1153 16.3473 20.1153C14.285 20.1153 12.6135 18.4107 12.6135 16.3082C12.6135 14.2055 14.285 12.5011 16.3473 12.5011Z" fill="#4A4A4A"/>
</svg>
