<svg width="32" height="33" viewBox="0 0 32 33" fill="none" xmlns="http://www.w3.org/2000/svg">
<path fill-rule="evenodd" clip-rule="evenodd" d="M26.2671 10.7894C26.2758 11.0227 26.2787 11.2559 26.2787 11.4892C26.2787 18.5615 21.4914 26.7262 12.737 26.7262C10.0478 26.7262 7.54728 25.8355 5.44043 24.3192C5.81285 24.3616 6.19108 24.3935 6.57512 24.3935C8.80482 24.3935 10.8585 23.5344 12.4875 22.0924C10.4048 22.0606 8.64618 20.5019 8.03967 18.3813C8.33083 18.4449 8.63069 18.4768 8.93733 18.4768C9.36973 18.4768 9.78955 18.4132 10.192 18.286C8.01256 17.7983 6.37101 15.6352 6.37101 13.0374C6.37101 13.0056 6.37101 12.995 6.37101 12.9738C7.01332 13.3661 7.74848 13.6098 8.52912 13.6416C7.2503 12.6767 6.40968 11.0333 6.40968 9.17772C6.40968 8.20222 6.64378 7.27969 7.05586 6.48445C9.40261 9.72904 12.9112 11.8603 16.8666 12.083C16.7853 11.6907 16.7437 11.2773 16.7437 10.8637C16.7437 7.90542 18.8747 5.50903 21.504 5.50903C22.8727 5.50903 24.109 6.15592 24.9767 7.19504C26.063 6.96177 27.0806 6.51647 28.0015 5.90148C27.6446 7.15266 26.891 8.20217 25.9063 8.85957C26.8698 8.73233 27.7887 8.44626 28.641 8.02213C28.0016 9.09306 27.1967 10.0366 26.2671 10.7894Z" fill="#4A4A4A"/>
</svg>
