<svg width="31" height="32" viewBox="0 0 31 32" fill="none" xmlns="http://www.w3.org/2000/svg">
<path fill-rule="evenodd" clip-rule="evenodd" d="M6.04097 4.70044C5.1856 4.70044 4.49219 5.39385 4.49219 6.24922V24.9715C4.49219 25.8268 5.1856 26.5202 6.04097 26.5202H24.7633C25.6186 26.5202 26.312 25.8268 26.312 24.9715V6.24922C26.312 5.39385 25.6186 4.70044 24.7633 4.70044H6.04097ZM9.38974 11.4766C10.4351 11.4766 11.2826 10.6291 11.2826 9.58374C11.2826 8.53834 10.4351 7.69087 9.38974 7.69087C8.34434 7.69087 7.49688 8.53834 7.49688 9.58374C7.49688 10.6291 8.34434 11.4766 9.38974 11.4766ZM13.0162 12.8755H16.1533V14.3126C16.1533 14.3126 17.0045 12.61 19.3208 12.61C21.387 12.61 23.0986 13.6279 23.0986 16.7304V23.2727H19.8477V17.5231C19.8477 15.693 18.8706 15.4917 18.126 15.4917C16.5808 15.4917 16.3163 16.8245 16.3163 17.7619V23.2727H13.0162V12.8755ZM11.0398 12.8755H7.73968V23.2727H11.0398V12.8755Z" fill="#4A4A4A"/>
</svg>
