<svg xmlns="http://www.w3.org/2000/svg" viewBox="0 0 27 27" font-size="inherit">
  <g>
    <rect width="27" height="27" x="0" y="0" style="fill: rgb(255, 255, 255);"></rect>
    <rect width="1" height="1" x="1" y="1"></rect>
    <rect width="1" height="1" x="2" y="1"></rect>
    <rect width="1" height="1" x="3" y="1"></rect>
    <rect width="1" height="1" x="4" y="1"></rect>
    <rect width="1" height="1" x="5" y="1"></rect>
    <rect width="1" height="1" x="6" y="1"></rect>
    <rect width="1" height="1" x="7" y="1"></rect>
    <rect width="1" height="1" x="11" y="1"></rect>
    <rect width="1" height="1" x="14" y="1"></rect>
    <rect width="1" height="1" x="15" y="1"></rect>
    <rect width="1" height="1" x="16" y="1"></rect>
    <rect width="1" height="1" x="17" y="1"></rect>
    <rect width="1" height="1" x="19" y="1"></rect>
    <rect width="1" height="1" x="20" y="1"></rect>
    <rect width="1" height="1" x="21" y="1"></rect>
    <rect width="1" height="1" x="22" y="1"></rect>
    <rect width="1" height="1" x="23" y="1"></rect>
    <rect width="1" height="1" x="24" y="1"></rect>
    <rect width="1" height="1" x="25" y="1"></rect>
    <rect width="1" height="1" x="1" y="2"></rect>
    <rect width="1" height="1" x="7" y="2"></rect>
    <rect width="1" height="1" x="10" y="2"></rect>
    <rect width="1" height="1" x="15" y="2"></rect>
    <rect width="1" height="1" x="16" y="2"></rect>
    <rect width="1" height="1" x="17" y="2"></rect>
    <rect width="1" height="1" x="19" y="2"></rect>
    <rect width="1" height="1" x="25" y="2"></rect>
    <rect width="1" height="1" x="1" y="3"></rect>
    <rect width="1" height="1" x="3" y="3"></rect>
    <rect width="1" height="1" x="4" y="3"></rect>
    <rect width="1" height="1" x="5" y="3"></rect>
    <rect width="1" height="1" x="7" y="3"></rect>
    <rect width="1" height="1" x="9" y="3"></rect>
    <rect width="1" height="1" x="12" y="3"></rect>
    <rect width="1" height="1" x="16" y="3"></rect>
    <rect width="1" height="1" x="19" y="3"></rect>
    <rect width="1" height="1" x="21" y="3"></rect>
    <rect width="1" height="1" x="22" y="3"></rect>
    <rect width="1" height="1" x="23" y="3"></rect>
    <rect width="1" height="1" x="25" y="3"></rect>
    <rect width="1" height="1" x="1" y="4"></rect>
    <rect width="1" height="1" x="3" y="4"></rect>
    <rect width="1" height="1" x="4" y="4"></rect>
    <rect width="1" height="1" x="5" y="4"></rect>
    <rect width="1" height="1" x="7" y="4"></rect>
    <rect width="1" height="1" x="10" y="4"></rect>
    <rect width="1" height="1" x="13" y="4"></rect>
    <rect width="1" height="1" x="15" y="4"></rect>
    <rect width="1" height="1" x="19" y="4"></rect>
    <rect width="1" height="1" x="21" y="4"></rect>
    <rect width="1" height="1" x="22" y="4"></rect>
    <rect width="1" height="1" x="23" y="4"></rect>
    <rect width="1" height="1" x="25" y="4"></rect>
    <rect width="1" height="1" x="1" y="5"></rect>
    <rect width="1" height="1" x="3" y="5"></rect>
    <rect width="1" height="1" x="4" y="5"></rect>
    <rect width="1" height="1" x="5" y="5"></rect>
    <rect width="1" height="1" x="7" y="5"></rect>
    <rect width="1" height="1" x="10" y="5"></rect>
    <rect width="1" height="1" x="13" y="5"></rect>
    <rect width="1" height="1" x="15" y="5"></rect>
    <rect width="1" height="1" x="16" y="5"></rect>
    <rect width="1" height="1" x="19" y="5"></rect>
    <rect width="1" height="1" x="21" y="5"></rect>
    <rect width="1" height="1" x="22" y="5"></rect>
    <rect width="1" height="1" x="23" y="5"></rect>
    <rect width="1" height="1" x="25" y="5"></rect>
    <rect width="1" height="1" x="1" y="6"></rect>
    <rect width="1" height="1" x="7" y="6"></rect>
    <rect width="1" height="1" x="11" y="6"></rect>
    <rect width="1" height="1" x="12" y="6"></rect>
    <rect width="1" height="1" x="13" y="6"></rect>
    <rect width="1" height="1" x="14" y="6"></rect>
    <rect width="1" height="1" x="16" y="6"></rect>
    <rect width="1" height="1" x="19" y="6"></rect>
    <rect width="1" height="1" x="25" y="6"></rect>
    <rect width="1" height="1" x="1" y="7"></rect>
    <rect width="1" height="1" x="2" y="7"></rect>
    <rect width="1" height="1" x="3" y="7"></rect>
    <rect width="1" height="1" x="4" y="7"></rect>
    <rect width="1" height="1" x="5" y="7"></rect>
    <rect width="1" height="1" x="6" y="7"></rect>
    <rect width="1" height="1" x="7" y="7"></rect>
    <rect width="1" height="1" x="9" y="7"></rect>
    <rect width="1" height="1" x="11" y="7"></rect>
    <rect width="1" height="1" x="13" y="7"></rect>
    <rect width="1" height="1" x="15" y="7"></rect>
    <rect width="1" height="1" x="17" y="7"></rect>
    <rect width="1" height="1" x="19" y="7"></rect>
    <rect width="1" height="1" x="20" y="7"></rect>
    <rect width="1" height="1" x="21" y="7"></rect>
    <rect width="1" height="1" x="22" y="7"></rect>
    <rect width="1" height="1" x="23" y="7"></rect>
    <rect width="1" height="1" x="24" y="7"></rect>
    <rect width="1" height="1" x="25" y="7"></rect>
    <rect width="1" height="1" x="9" y="8"></rect>
    <rect width="1" height="1" x="12" y="8"></rect>
    <rect width="1" height="1" x="14" y="8"></rect>
    <rect width="1" height="1" x="15" y="8"></rect>
    <rect width="1" height="1" x="16" y="8"></rect>
    <rect width="1" height="1" x="17" y="8"></rect>
    <rect width="1" height="1" x="1" y="9"></rect>
    <rect width="1" height="1" x="2" y="9"></rect>
    <rect width="1" height="1" x="3" y="9"></rect>
    <rect width="1" height="1" x="5" y="9"></rect>
    <rect width="1" height="1" x="6" y="9"></rect>
    <rect width="1" height="1" x="7" y="9"></rect>
    <rect width="1" height="1" x="8" y="9"></rect>
    <rect width="1" height="1" x="9" y="9"></rect>
    <rect width="1" height="1" x="13" y="9"></rect>
    <rect width="1" height="1" x="14" y="9"></rect>
    <rect width="1" height="1" x="18" y="9"></rect>
    <rect width="1" height="1" x="19" y="9"></rect>
    <rect width="1" height="1" x="23" y="9"></rect>
    <rect width="1" height="1" x="3" y="10"></rect>
    <rect width="1" height="1" x="4" y="10"></rect>
    <rect width="1" height="1" x="5" y="10"></rect>
    <rect width="1" height="1" x="8" y="10"></rect>
    <rect width="1" height="1" x="9" y="10"></rect>
    <rect width="1" height="1" x="10" y="10"></rect>
    <rect width="1" height="1" x="12" y="10"></rect>
    <rect width="1" height="1" x="13" y="10"></rect>
    <rect width="1" height="1" x="14" y="10"></rect>
    <rect width="1" height="1" x="15" y="10"></rect>
    <rect width="1" height="1" x="17" y="10"></rect>
    <rect width="1" height="1" x="18" y="10"></rect>
    <rect width="1" height="1" x="19" y="10"></rect>
    <rect width="1" height="1" x="25" y="10"></rect>
    <rect width="1" height="1" x="5" y="11"></rect>
    <rect width="1" height="1" x="7" y="11"></rect>
    <rect width="1" height="1" x="8" y="11"></rect>
    <rect width="1" height="1" x="11" y="11"></rect>
    <rect width="1" height="1" x="12" y="11"></rect>
    <rect width="1" height="1" x="13" y="11"></rect>
    <rect width="1" height="1" x="15" y="11"></rect>
    <rect width="1" height="1" x="17" y="11"></rect>
    <rect width="1" height="1" x="18" y="11"></rect>
    <rect width="1" height="1" x="19" y="11"></rect>
    <rect width="1" height="1" x="23" y="11"></rect>
    <rect width="1" height="1" x="24" y="11"></rect>
    <rect width="1" height="1" x="25" y="11"></rect>
    <rect width="1" height="1" x="4" y="12"></rect>
    <rect width="1" height="1" x="8" y="12"></rect>
    <rect width="1" height="1" x="10" y="12"></rect>
    <rect width="1" height="1" x="11" y="12"></rect>
    <rect width="1" height="1" x="13" y="12"></rect>
    <rect width="1" height="1" x="14" y="12"></rect>
    <rect width="1" height="1" x="17" y="12"></rect>
    <rect width="1" height="1" x="21" y="12"></rect>
    <rect width="1" height="1" x="24" y="12"></rect>
    <rect width="1" height="1" x="6" y="13"></rect>
    <rect width="1" height="1" x="7" y="13"></rect>
    <rect width="1" height="1" x="8" y="13"></rect>
    <rect width="1" height="1" x="11" y="13"></rect>
    <rect width="1" height="1" x="12" y="13"></rect>
    <rect width="1" height="1" x="14" y="13"></rect>
    <rect width="1" height="1" x="16" y="13"></rect>
    <rect width="1" height="1" x="17" y="13"></rect>
    <rect width="1" height="1" x="18" y="13"></rect>
    <rect width="1" height="1" x="19" y="13"></rect>
    <rect width="1" height="1" x="22" y="13"></rect>
    <rect width="1" height="1" x="24" y="13"></rect>
    <rect width="1" height="1" x="25" y="13"></rect>
    <rect width="1" height="1" x="2" y="14"></rect>
    <rect width="1" height="1" x="4" y="14"></rect>
    <rect width="1" height="1" x="6" y="14"></rect>
    <rect width="1" height="1" x="11" y="14"></rect>
    <rect width="1" height="1" x="12" y="14"></rect>
    <rect width="1" height="1" x="14" y="14"></rect>
    <rect width="1" height="1" x="15" y="14"></rect>
    <rect width="1" height="1" x="18" y="14"></rect>
    <rect width="1" height="1" x="19" y="14"></rect>
    <rect width="1" height="1" x="22" y="14"></rect>
    <rect width="1" height="1" x="25" y="14"></rect>
    <rect width="1" height="1" x="1" y="15"></rect>
    <rect width="1" height="1" x="3" y="15"></rect>
    <rect width="1" height="1" x="4" y="15"></rect>
    <rect width="1" height="1" x="5" y="15"></rect>
    <rect width="1" height="1" x="6" y="15"></rect>
    <rect width="1" height="1" x="7" y="15"></rect>
    <rect width="1" height="1" x="9" y="15"></rect>
    <rect width="1" height="1" x="15" y="15"></rect>
    <rect width="1" height="1" x="18" y="15"></rect>
    <rect width="1" height="1" x="20" y="15"></rect>
    <rect width="1" height="1" x="23" y="15"></rect>
    <rect width="1" height="1" x="24" y="15"></rect>
    <rect width="1" height="1" x="25" y="15"></rect>
    <rect width="1" height="1" x="2" y="16"></rect>
    <rect width="1" height="1" x="3" y="16"></rect>
    <rect width="1" height="1" x="4" y="16"></rect>
    <rect width="1" height="1" x="6" y="16"></rect>
    <rect width="1" height="1" x="8" y="16"></rect>
    <rect width="1" height="1" x="10" y="16"></rect>
    <rect width="1" height="1" x="12" y="16"></rect>
    <rect width="1" height="1" x="14" y="16"></rect>
    <rect width="1" height="1" x="18" y="16"></rect>
    <rect width="1" height="1" x="21" y="16"></rect>
    <rect width="1" height="1" x="22" y="16"></rect>
    <rect width="1" height="1" x="24" y="16"></rect>
    <rect width="1" height="1" x="1" y="17"></rect>
    <rect width="1" height="1" x="4" y="17"></rect>
    <rect width="1" height="1" x="6" y="17"></rect>
    <rect width="1" height="1" x="7" y="17"></rect>
    <rect width="1" height="1" x="8" y="17"></rect>
    <rect width="1" height="1" x="11" y="17"></rect>
    <rect width="1" height="1" x="13" y="17"></rect>
    <rect width="1" height="1" x="14" y="17"></rect>
    <rect width="1" height="1" x="16" y="17"></rect>
    <rect width="1" height="1" x="17" y="17"></rect>
    <rect width="1" height="1" x="18" y="17"></rect>
    <rect width="1" height="1" x="19" y="17"></rect>
    <rect width="1" height="1" x="20" y="17"></rect>
    <rect width="1" height="1" x="21" y="17"></rect>
    <rect width="1" height="1" x="22" y="17"></rect>
    <rect width="1" height="1" x="9" y="18"></rect>
    <rect width="1" height="1" x="10" y="18"></rect>
    <rect width="1" height="1" x="12" y="18"></rect>
    <rect width="1" height="1" x="13" y="18"></rect>
    <rect width="1" height="1" x="14" y="18"></rect>
    <rect width="1" height="1" x="15" y="18"></rect>
    <rect width="1" height="1" x="16" y="18"></rect>
    <rect width="1" height="1" x="17" y="18"></rect>
    <rect width="1" height="1" x="21" y="18"></rect>
    <rect width="1" height="1" x="22" y="18"></rect>
    <rect width="1" height="1" x="23" y="18"></rect>
    <rect width="1" height="1" x="24" y="18"></rect>
    <rect width="1" height="1" x="25" y="18"></rect>
    <rect width="1" height="1" x="1" y="19"></rect>
    <rect width="1" height="1" x="2" y="19"></rect>
    <rect width="1" height="1" x="3" y="19"></rect>
    <rect width="1" height="1" x="4" y="19"></rect>
    <rect width="1" height="1" x="5" y="19"></rect>
    <rect width="1" height="1" x="6" y="19"></rect>
    <rect width="1" height="1" x="7" y="19"></rect>
    <rect width="1" height="1" x="9" y="19"></rect>
    <rect width="1" height="1" x="12" y="19"></rect>
    <rect width="1" height="1" x="13" y="19"></rect>
    <rect width="1" height="1" x="16" y="19"></rect>
    <rect width="1" height="1" x="17" y="19"></rect>
    <rect width="1" height="1" x="19" y="19"></rect>
    <rect width="1" height="1" x="21" y="19"></rect>
    <rect width="1" height="1" x="24" y="19"></rect>
    <rect width="1" height="1" x="25" y="19"></rect>
    <rect width="1" height="1" x="1" y="20"></rect>
    <rect width="1" height="1" x="7" y="20"></rect>
    <rect width="1" height="1" x="9" y="20"></rect>
    <rect width="1" height="1" x="11" y="20"></rect>
    <rect width="1" height="1" x="13" y="20"></rect>
    <rect width="1" height="1" x="14" y="20"></rect>
    <rect width="1" height="1" x="17" y="20"></rect>
    <rect width="1" height="1" x="21" y="20"></rect>
    <rect width="1" height="1" x="22" y="20"></rect>
    <rect width="1" height="1" x="24" y="20"></rect>
    <rect width="1" height="1" x="1" y="21"></rect>
    <rect width="1" height="1" x="3" y="21"></rect>
    <rect width="1" height="1" x="4" y="21"></rect>
    <rect width="1" height="1" x="5" y="21"></rect>
    <rect width="1" height="1" x="7" y="21"></rect>
    <rect width="1" height="1" x="9" y="21"></rect>
    <rect width="1" height="1" x="10" y="21"></rect>
    <rect width="1" height="1" x="11" y="21"></rect>
    <rect width="1" height="1" x="12" y="21"></rect>
    <rect width="1" height="1" x="13" y="21"></rect>
    <rect width="1" height="1" x="14" y="21"></rect>
    <rect width="1" height="1" x="17" y="21"></rect>
    <rect width="1" height="1" x="18" y="21"></rect>
    <rect width="1" height="1" x="19" y="21"></rect>
    <rect width="1" height="1" x="20" y="21"></rect>
    <rect width="1" height="1" x="21" y="21"></rect>
    <rect width="1" height="1" x="1" y="22"></rect>
    <rect width="1" height="1" x="3" y="22"></rect>
    <rect width="1" height="1" x="4" y="22"></rect>
    <rect width="1" height="1" x="5" y="22"></rect>
    <rect width="1" height="1" x="7" y="22"></rect>
    <rect width="1" height="1" x="11" y="22"></rect>
    <rect width="1" height="1" x="12" y="22"></rect>
    <rect width="1" height="1" x="16" y="22"></rect>
    <rect width="1" height="1" x="17" y="22"></rect>
    <rect width="1" height="1" x="20" y="22"></rect>
    <rect width="1" height="1" x="21" y="22"></rect>
    <rect width="1" height="1" x="23" y="22"></rect>
    <rect width="1" height="1" x="1" y="23"></rect>
    <rect width="1" height="1" x="3" y="23"></rect>
    <rect width="1" height="1" x="4" y="23"></rect>
    <rect width="1" height="1" x="5" y="23"></rect>
    <rect width="1" height="1" x="7" y="23"></rect>
    <rect width="1" height="1" x="9" y="23"></rect>
    <rect width="1" height="1" x="10" y="23"></rect>
    <rect width="1" height="1" x="13" y="23"></rect>
    <rect width="1" height="1" x="14" y="23"></rect>
    <rect width="1" height="1" x="16" y="23"></rect>
    <rect width="1" height="1" x="20" y="23"></rect>
    <rect width="1" height="1" x="21" y="23"></rect>
    <rect width="1" height="1" x="22" y="23"></rect>
    <rect width="1" height="1" x="25" y="23"></rect>
    <rect width="1" height="1" x="1" y="24"></rect>
    <rect width="1" height="1" x="7" y="24"></rect>
    <rect width="1" height="1" x="9" y="24"></rect>
    <rect width="1" height="1" x="11" y="24"></rect>
    <rect width="1" height="1" x="12" y="24"></rect>
    <rect width="1" height="1" x="14" y="24"></rect>
    <rect width="1" height="1" x="15" y="24"></rect>
    <rect width="1" height="1" x="16" y="24"></rect>
    <rect width="1" height="1" x="17" y="24"></rect>
    <rect width="1" height="1" x="18" y="24"></rect>
    <rect width="1" height="1" x="19" y="24"></rect>
    <rect width="1" height="1" x="21" y="24"></rect>
    <rect width="1" height="1" x="22" y="24"></rect>
    <rect width="1" height="1" x="24" y="24"></rect>
    <rect width="1" height="1" x="1" y="25"></rect>
    <rect width="1" height="1" x="2" y="25"></rect>
    <rect width="1" height="1" x="3" y="25"></rect>
    <rect width="1" height="1" x="4" y="25"></rect>
    <rect width="1" height="1" x="5" y="25"></rect>
    <rect width="1" height="1" x="6" y="25"></rect>
    <rect width="1" height="1" x="7" y="25"></rect>
    <rect width="1" height="1" x="9" y="25"></rect>
    <rect width="1" height="1" x="11" y="25"></rect>
    <rect width="1" height="1" x="14" y="25"></rect>
    <rect width="1" height="1" x="16" y="25"></rect>
    <rect width="1" height="1" x="17" y="25"></rect>
    <rect width="1" height="1" x="18" y="25"></rect>
    <rect width="1" height="1" x="19" y="25"></rect>
    <rect width="1" height="1" x="20" y="25"></rect>
    <rect width="1" height="1" x="24" y="25"></rect>
    <rect width="1" height="1" x="25" y="25"></rect>
  </g>
</svg>