<svg xmlns="http://www.w3.org/2000/svg" viewBox="0 0 204 204" fill="none" font-size="inherit"><path fill="#fff" d="M204 0H0v204h204V0Z"></path><path fill="#000" d="M7.556 7.556h7.555v7.555H7.556V7.556Zm7.555 0h7.556v7.555H15.11V7.556Zm7.556 0h7.555v7.555h-7.555V7.556Zm7.555 0h7.556v7.555h-7.556V7.556Zm7.556 0h7.555v7.555h-7.555V7.556Zm7.555 0h7.556v7.555h-7.556V7.556Zm7.556 0h7.555v7.555H52.89V7.556Zm15.111 0h7.555v7.555H68V7.556Zm22.667 0h7.555v7.555h-7.555V7.556Zm7.555 0h7.556v7.555h-7.556V7.556Zm15.111 0h7.556v7.555h-7.556V7.556Zm30.223 0h7.555v7.555h-7.555V7.556Zm7.555 0h7.556v7.555h-7.556V7.556Zm7.556 0h7.555v7.555h-7.555V7.556Zm7.555 0h7.556v7.555h-7.556V7.556Zm7.556 0h7.555v7.555h-7.555V7.556Zm7.555 0h7.556v7.555h-7.556V7.556Zm7.556 0h7.555v7.555h-7.555V7.556ZM7.556 15.11h7.555v7.556H7.556V15.11Zm45.333 0h7.555v7.556H52.89V15.11Zm15.111 0h7.555v7.556H68V15.11Zm7.555 0h7.556v7.556h-7.556V15.11Zm7.556 0h7.556v7.556H83.11V15.11Zm15.111 0h7.556v7.556h-7.556V15.11Zm7.556 0h7.555v7.556h-7.555V15.11Zm7.555 0h7.556v7.556h-7.556V15.11Zm30.223 0h7.555v7.556h-7.555V15.11Zm45.333 0h7.555v7.556h-7.555V15.11ZM7.556 22.667h7.555v7.555H7.556v-7.555Zm15.11 0h7.556v7.555h-7.555v-7.555Zm7.556 0h7.556v7.555h-7.556v-7.555Zm7.556 0h7.555v7.555h-7.555v-7.555Zm15.11 0h7.556v7.555H52.89v-7.555Zm30.223 0h7.556v7.555H83.11v-7.555Zm7.556 0h7.555v7.555h-7.555v-7.555Zm7.555 0h7.556v7.555h-7.556v-7.555Zm7.556 0h7.555v7.555h-7.555v-7.555Zm15.111 0h7.555v7.555h-7.555v-7.555Zm22.667 0h7.555v7.555h-7.555v-7.555Zm15.111 0h7.555v7.555h-7.555v-7.555Zm7.555 0h7.556v7.555h-7.556v-7.555Zm7.556 0h7.555v7.555h-7.555v-7.555Zm15.111 0h7.555v7.555h-7.555v-7.555ZM7.556 30.222h7.555v7.556H7.556v-7.556Zm15.11 0h7.556v7.556h-7.555v-7.556Zm7.556 0h7.556v7.556h-7.556v-7.556Zm7.556 0h7.555v7.556h-7.555v-7.556Zm15.11 0h7.556v7.556H52.89v-7.556Zm30.223 0h7.556v7.556H83.11v-7.556Zm22.667 0h7.555v7.556h-7.555v-7.556Zm22.666 0H136v7.556h-7.556v-7.556Zm15.112 0h7.555v7.556h-7.555v-7.556Zm15.111 0h7.555v7.556h-7.555v-7.556Zm7.555 0h7.556v7.556h-7.556v-7.556Zm7.556 0h7.555v7.556h-7.555v-7.556Zm15.111 0h7.555v7.556h-7.555v-7.556ZM7.556 37.778h7.555v7.555H7.556v-7.555Zm15.11 0h7.556v7.555h-7.555v-7.555Zm7.556 0h7.556v7.555h-7.556v-7.555Zm7.556 0h7.555v7.555h-7.555v-7.555Zm15.11 0h7.556v7.555H52.89v-7.555Zm15.112 0h7.555v7.555H68v-7.555Zm7.555 0h7.556v7.555h-7.556v-7.555Zm7.556 0h7.556v7.555H83.11v-7.555Zm7.556 0h7.555v7.555h-7.555v-7.555Zm22.666 0h7.556v7.555h-7.556v-7.555Zm30.223 0h7.555v7.555h-7.555v-7.555Zm15.111 0h7.555v7.555h-7.555v-7.555Zm7.555 0h7.556v7.555h-7.556v-7.555Zm7.556 0h7.555v7.555h-7.555v-7.555Zm15.111 0h7.555v7.555h-7.555v-7.555ZM7.556 45.333h7.555v7.556H7.556v-7.556Zm45.333 0h7.555v7.556H52.89v-7.556Zm15.111 0h7.555v7.556H68v-7.556Zm22.667 0h7.555v7.556h-7.555v-7.556Zm15.111 0h7.555v7.556h-7.555v-7.556Zm7.555 0h7.556v7.556h-7.556v-7.556Zm30.223 0h7.555v7.556h-7.555v-7.556Zm45.333 0h7.555v7.556h-7.555v-7.556ZM7.556 52.89h7.555v7.555H7.556V52.89Zm7.555 0h7.556v7.555H15.11V52.89Zm7.556 0h7.555v7.555h-7.555V52.89Zm7.555 0h7.556v7.555h-7.556V52.89Zm7.556 0h7.555v7.555h-7.555V52.89Zm7.555 0h7.556v7.555h-7.556V52.89Zm7.556 0h7.555v7.555H52.89V52.89Zm15.111 0h7.555v7.555H68V52.89Zm15.111 0h7.556v7.555H83.11V52.89Zm15.111 0h7.556v7.555h-7.556V52.89Zm15.111 0h7.556v7.555h-7.556V52.89Zm15.111 0H136v7.555h-7.556V52.89Zm15.112 0h7.555v7.555h-7.555V52.89Zm7.555 0h7.556v7.555h-7.556V52.89Zm7.556 0h7.555v7.555h-7.555V52.89Zm7.555 0h7.556v7.555h-7.556V52.89Zm7.556 0h7.555v7.555h-7.555V52.89Zm7.555 0h7.556v7.555h-7.556V52.89Zm7.556 0h7.555v7.555h-7.555V52.89ZM68 60.444h7.555V68H68v-7.556Zm15.111 0h7.556V68H83.11v-7.556Zm7.556 0h7.555V68h-7.555v-7.556Zm7.555 0h7.556V68h-7.556v-7.556Zm15.111 0h7.556V68h-7.556v-7.556Zm7.556 0h7.555V68h-7.555v-7.556Zm7.555 0H136V68h-7.556v-7.556ZM7.556 68h7.555v7.556H7.556V68Zm7.555 0h7.556v7.556H15.11V68Zm7.556 0h7.555v7.556h-7.555V68Zm22.666 0h7.556v7.556h-7.556V68Zm7.556 0h7.555v7.556H52.89V68ZM68 68h7.555v7.556H68V68Zm7.555 0h7.556v7.556h-7.556V68Zm7.556 0h7.556v7.556H83.11V68Zm45.333 0H136v7.556h-7.556V68ZM136 68h7.556v7.556H136V68Zm7.556 0h7.555v7.556h-7.555V68Zm7.555 0h7.556v7.556h-7.556V68Zm7.556 0h7.555v7.556h-7.555V68Zm22.666 0h7.556v7.556h-7.556V68Zm7.556 0h7.555v7.556h-7.555V68ZM22.667 75.556h7.555v7.555h-7.555v-7.555Zm7.555 0h7.556v7.555h-7.556v-7.555Zm7.556 0h7.555v7.555h-7.555v-7.555Zm22.666 0H68v7.555h-7.556v-7.555Zm7.556 0h7.555v7.555H68v-7.555Zm7.555 0h7.556v7.555h-7.556v-7.555Zm7.556 0h7.556v7.555H83.11v-7.555Zm37.778 0h7.555v7.555h-7.555v-7.555Zm22.667 0h7.555v7.555h-7.555v-7.555Zm7.555 0h7.556v7.555h-7.556v-7.555Zm15.111 0h7.556v7.555h-7.556v-7.555Zm15.111 0h7.556v7.555h-7.556v-7.555Zm7.556 0h7.555v7.555h-7.555v-7.555ZM15.111 83.11h7.556v7.556H15.11V83.11Zm7.556 0h7.555v7.556h-7.555V83.11Zm15.11 0h7.556v7.556h-7.555V83.11Zm7.556 0h7.556v7.556h-7.556V83.11Zm7.556 0h7.555v7.556H52.89V83.11Zm37.778 0h7.555v7.556h-7.555V83.11Zm15.111 0h7.555v7.556h-7.555V83.11Zm15.111 0h7.555v7.556h-7.555V83.11Zm45.333 0h7.556v7.556h-7.556V83.11Zm7.556 0h7.555v7.556h-7.555V83.11Zm15.111 0h7.555v7.556h-7.555V83.11ZM7.556 90.667h7.555v7.555H7.556v-7.555Zm22.666 0h7.556v7.555h-7.556v-7.555Zm15.111 0h7.556v7.555h-7.556v-7.555Zm15.111 0H68v7.555h-7.556v-7.555Zm15.111 0h7.556v7.555h-7.556v-7.555Zm37.778 0h7.556v7.555h-7.556v-7.555Zm7.556 0h7.555v7.555h-7.555v-7.555Zm22.667 0h7.555v7.555h-7.555v-7.555Zm7.555 0h7.556v7.555h-7.556v-7.555Zm7.556 0h7.555v7.555h-7.555v-7.555Zm7.555 0h7.556v7.555h-7.556v-7.555ZM37.778 98.222h7.555v7.556h-7.555v-7.556Zm15.11 0h7.556v7.556H52.89v-7.556Zm15.112 0h7.555v7.556H68v-7.556Zm7.555 0h7.556v7.556h-7.556v-7.556Zm15.112 0h7.555v7.556h-7.555v-7.556Zm7.555 0h7.556v7.556h-7.556v-7.556Zm30.222 0H136v7.556h-7.556v-7.556Zm15.112 0h7.555v7.556h-7.555v-7.556Zm7.555 0h7.556v7.556h-7.556v-7.556Zm37.778 0h7.555v7.556h-7.555v-7.556Zm-173.778 7.556h7.556v7.555H15.11v-7.555Zm7.556 0h7.555v7.555h-7.555v-7.555Zm37.777 0H68v7.555h-7.556v-7.555Zm7.556 0h7.555v7.555H68v-7.555Zm30.222 0h7.556v7.555h-7.556v-7.555Zm22.667 0h7.555v7.555h-7.555v-7.555Zm7.555 0H136v7.555h-7.556v-7.555Zm15.112 0h7.555v7.555h-7.555v-7.555Zm7.555 0h7.556v7.555h-7.556v-7.555Zm30.222 0h7.556v7.555h-7.556v-7.555Zm7.556 0h7.555v7.555h-7.555v-7.555ZM7.556 113.333h7.555v7.556H7.556v-7.556Zm7.555 0h7.556v7.556H15.11v-7.556Zm7.556 0h7.555v7.556h-7.555v-7.556Zm7.555 0h7.556v7.556h-7.556v-7.556Zm7.556 0h7.555v7.556h-7.555v-7.556Zm15.11 0h7.556v7.556H52.89v-7.556Zm7.556 0H68v7.556h-7.556v-7.556Zm37.778 0h7.556v7.556h-7.556v-7.556Zm15.111 0h7.556v7.556h-7.556v-7.556Zm7.556 0h7.555v7.556h-7.555v-7.556Zm7.555 0H136v7.556h-7.556v-7.556Zm15.112 0h7.555v7.556h-7.555v-7.556Zm22.666 0h7.556v7.556h-7.556v-7.556Zm7.556 0h7.555v7.556h-7.555v-7.556Zm15.111 0h7.555v7.556h-7.555v-7.556Zm-166.222 7.556h7.555v7.555h-7.555v-7.555Zm7.555 0h7.556v7.555h-7.556v-7.555Zm30.222 0H68v7.555h-7.556v-7.555Zm7.556 0h7.555v7.555H68v-7.555Zm15.111 0h7.556v7.555H83.11v-7.555Zm7.556 0h7.555v7.555h-7.555v-7.555Zm7.555 0h7.556v7.555h-7.556v-7.555Zm22.667 0h7.555v7.555h-7.555v-7.555Zm7.555 0H136v7.555h-7.556v-7.555Zm7.556 0h7.556v7.555H136v-7.555Zm15.111 0h7.556v7.555h-7.556v-7.555Zm7.556 0h7.555v7.555h-7.555v-7.555Zm7.555 0h7.556v7.555h-7.556v-7.555ZM7.556 128.444h7.555V136H7.556v-7.556Zm7.555 0h7.556V136H15.11v-7.556Zm7.556 0h7.555V136h-7.555v-7.556Zm7.555 0h7.556V136h-7.556v-7.556Zm15.111 0h7.556V136h-7.556v-7.556Zm7.556 0h7.555V136H52.89v-7.556Zm7.555 0H68V136h-7.556v-7.556Zm7.556 0h7.555V136H68v-7.556Zm7.555 0h7.556V136h-7.556v-7.556Zm7.556 0h7.556V136H83.11v-7.556Zm15.111 0h7.556V136h-7.556v-7.556Zm30.222 0H136V136h-7.556v-7.556Zm7.556 0h7.556V136H136v-7.556Zm7.556 0h7.555V136h-7.555v-7.556Zm7.555 0h7.556V136h-7.556v-7.556Zm7.556 0h7.555V136h-7.555v-7.556Zm22.666 0h7.556V136h-7.556v-7.556ZM68 136h7.555v7.556H68V136Zm37.778 0h7.555v7.556h-7.555V136Zm22.666 0H136v7.556h-7.556V136Zm30.223 0h7.555v7.556h-7.555V136Zm30.222 0h7.555v7.556h-7.555V136ZM7.556 143.556h7.555v7.555H7.556v-7.555Zm7.555 0h7.556v7.555H15.11v-7.555Zm7.556 0h7.555v7.555h-7.555v-7.555Zm7.555 0h7.556v7.555h-7.556v-7.555Zm7.556 0h7.555v7.555h-7.555v-7.555Zm7.555 0h7.556v7.555h-7.556v-7.555Zm7.556 0h7.555v7.555H52.89v-7.555Zm22.666 0h7.556v7.555h-7.556v-7.555Zm15.112 0h7.555v7.555h-7.555v-7.555Zm15.111 0h7.555v7.555h-7.555v-7.555Zm22.666 0H136v7.555h-7.556v-7.555Zm15.112 0h7.555v7.555h-7.555v-7.555Zm15.111 0h7.555v7.555h-7.555v-7.555Zm30.222 0h7.555v7.555h-7.555v-7.555ZM7.556 151.111h7.555v7.556H7.556v-7.556Zm45.333 0h7.555v7.556H52.89v-7.556Zm15.111 0h7.555v7.556H68v-7.556Zm15.111 0h7.556v7.556H83.11v-7.556Zm7.556 0h7.555v7.556h-7.555v-7.556Zm7.555 0h7.556v7.556h-7.556v-7.556Zm15.111 0h7.556v7.556h-7.556v-7.556Zm7.556 0h7.555v7.556h-7.555v-7.556Zm7.555 0H136v7.556h-7.556v-7.556Zm30.223 0h7.555v7.556h-7.555v-7.556Zm22.666 0h7.556v7.556h-7.556v-7.556ZM7.556 158.667h7.555v7.555H7.556v-7.555Zm15.11 0h7.556v7.555h-7.555v-7.555Zm7.556 0h7.556v7.555h-7.556v-7.555Zm7.556 0h7.555v7.555h-7.555v-7.555Zm15.11 0h7.556v7.555H52.89v-7.555Zm22.667 0h7.556v7.555h-7.556v-7.555Zm15.112 0h7.555v7.555h-7.555v-7.555Zm30.222 0h7.555v7.555h-7.555v-7.555Zm7.555 0H136v7.555h-7.556v-7.555Zm7.556 0h7.556v7.555H136v-7.555Zm7.556 0h7.555v7.555h-7.555v-7.555Zm7.555 0h7.556v7.555h-7.556v-7.555Zm7.556 0h7.555v7.555h-7.555v-7.555Zm22.666 0h7.556v7.555h-7.556v-7.555ZM7.556 166.222h7.555v7.556H7.556v-7.556Zm15.11 0h7.556v7.556h-7.555v-7.556Zm7.556 0h7.556v7.556h-7.556v-7.556Zm7.556 0h7.555v7.556h-7.555v-7.556Zm15.11 0h7.556v7.556H52.89v-7.556Zm22.667 0h7.556v7.556h-7.556v-7.556Zm15.112 0h7.555v7.556h-7.555v-7.556Zm7.555 0h7.556v7.556h-7.556v-7.556Zm7.556 0h7.555v7.556h-7.555v-7.556Zm15.111 0h7.555v7.556h-7.555v-7.556Zm15.111 0h7.556v7.556H136v-7.556Zm22.667 0h7.555v7.556h-7.555v-7.556Zm15.111 0h7.555v7.556h-7.555v-7.556Zm7.555 0h7.556v7.556h-7.556v-7.556ZM7.556 173.778h7.555v7.555H7.556v-7.555Zm15.11 0h7.556v7.555h-7.555v-7.555Zm7.556 0h7.556v7.555h-7.556v-7.555Zm7.556 0h7.555v7.555h-7.555v-7.555Zm15.11 0h7.556v7.555H52.89v-7.555Zm15.112 0h7.555v7.555H68v-7.555Zm7.555 0h7.556v7.555h-7.556v-7.555Zm15.112 0h7.555v7.555h-7.555v-7.555Zm15.111 0h7.555v7.555h-7.555v-7.555Zm15.111 0h7.555v7.555h-7.555v-7.555Zm15.111 0h7.556v7.555H136v-7.555Zm15.111 0h7.556v7.555h-7.556v-7.555Zm7.556 0h7.555v7.555h-7.555v-7.555Zm7.555 0h7.556v7.555h-7.556v-7.555Zm15.111 0h7.556v7.555h-7.556v-7.555Zm7.556 0h7.555v7.555h-7.555v-7.555ZM7.556 181.333h7.555v7.556H7.556v-7.556Zm45.333 0h7.555v7.556H52.89v-7.556Zm15.111 0h7.555v7.556H68v-7.556Zm30.222 0h7.556v7.556h-7.556v-7.556Zm15.111 0h7.556v7.556h-7.556v-7.556Zm15.111 0H136v7.556h-7.556v-7.556Zm7.556 0h7.556v7.556H136v-7.556Zm7.556 0h7.555v7.556h-7.555v-7.556Zm7.555 0h7.556v7.556h-7.556v-7.556Zm7.556 0h7.555v7.556h-7.555v-7.556ZM7.556 188.889h7.555v7.555H7.556v-7.555Zm7.555 0h7.556v7.555H15.11v-7.555Zm7.556 0h7.555v7.555h-7.555v-7.555Zm7.555 0h7.556v7.555h-7.556v-7.555Zm7.556 0h7.555v7.555h-7.555v-7.555Zm7.555 0h7.556v7.555h-7.556v-7.555Zm7.556 0h7.555v7.555H52.89v-7.555Zm15.111 0h7.555v7.555H68v-7.555Zm22.667 0h7.555v7.555h-7.555v-7.555Zm22.666 0h7.556v7.555h-7.556v-7.555Zm15.111 0H136v7.555h-7.556v-7.555Zm7.556 0h7.556v7.555H136v-7.555Zm7.556 0h7.555v7.555h-7.555v-7.555Zm22.666 0h7.556v7.555h-7.556v-7.555Zm22.667 0h7.555v7.555h-7.555v-7.555Z"></path></svg>