<svg width="390" height="450" viewBox="0 0 390 450" fill="none" xmlns="http://www.w3.org/2000/svg">
<g opacity="0.19">
<path d="M526 372C526 527.744 399.744 654 244 654C88.2557 654 -38 527.744 -38 372C-38 216.256 88.2557 90 244 90C399.744 90 526 216.256 526 372ZM50.6987 372C50.6987 478.757 137.243 565.301 244 565.301C350.757 565.301 437.301 478.757 437.301 372C437.301 265.243 350.757 178.699 244 178.699C137.243 178.699 50.6987 265.243 50.6987 372Z" fill="#20CDE4"/>
<path d="M323.42 370.849C323.42 415.347 287.347 451.42 242.849 451.42C198.351 451.42 162.278 415.347 162.278 370.849C162.278 326.351 198.351 290.278 242.849 290.278C287.347 290.278 323.42 326.351 323.42 370.849Z" fill="#20CDE4"/>
<path d="M242.849 90H526V380.057L397.106 250.119L242.849 90Z" fill="#20CDE4"/>
<circle cx="241" cy="372" r="197" fill="#20CDE4"/>
<path d="M525.873 336.215C520.994 512.551 376.515 654 199 654C18.4029 654 -128 507.597 -128 327C-128 146.847 17.6835 0.720476 197.668 0.002656L199 0H526V336.343L525.873 336.215Z" fill="url(#paint0_linear_198_486)"/>
</g>
<defs>
<linearGradient id="paint0_linear_198_486" x1="199" y1="0" x2="199" y2="654" gradientUnits="userSpaceOnUse">
<stop stop-color="#99D2D3"/>
<stop offset="1" stop-color="#B2D4D6" stop-opacity="0"/>
</linearGradient>
</defs>
</svg>
