<svg width="225" height="346" viewBox="0 0 225 346" fill="none" xmlns="http://www.w3.org/2000/svg">
<path d="M56.9542 59.8068H57.673V59.7189H161.811C164.257 59.7189 166.281 61.7705 166.281 64.3544V172.766H166.148L166.143 173.479C165.661 234.552 118.235 284.172 58.9527 285.263C-0.824764 286.365 -50.8487 236.956 -52.2506 175.231C-53.6895 111.822 -4.12428 59.8068 56.9542 59.8068Z" stroke="url(#paint0_linear_203_660)" stroke-opacity="0.49" stroke-width="1.43777"/>
<path d="M58.1491 0.718884H217.098C221.04 0.718884 224.281 4.02499 224.281 8.1613V173.782H224.076L224.07 174.496C223.336 267.778 150.965 343.587 60.4803 345.254C-30.7612 346.937 -107.095 271.452 -109.234 177.172C-111.43 80.3209 -35.7967 0.852816 57.4302 0.852816H58.1491V0.718884Z" stroke="url(#paint1_linear_203_660)" stroke-opacity="0.49" stroke-width="1.43777"/>
<path d="M58.1916 105.719H119.91C121.198 105.719 122.281 106.801 122.281 108.184V172.367H122.204L122.199 173.08C121.913 209.251 93.7916 238.625 58.6574 239.27C23.2301 239.922 -6.43174 210.673 -7.263 174.118C-8.11628 136.563 21.274 105.771 57.4727 105.771H58.1916V105.719Z" stroke="url(#paint2_linear_203_660)" stroke-opacity="0.49" stroke-width="1.43777"/>
<defs>
<linearGradient id="paint0_linear_203_660" x1="57" y1="59" x2="57" y2="286" gradientUnits="userSpaceOnUse">
<stop stop-color="#1ECAD3" stop-opacity="0"/>
<stop offset="1" stop-color="#1ECAD3" stop-opacity="0.2"/>
</linearGradient>
<linearGradient id="paint1_linear_203_660" x1="57.5" y1="0" x2="57.5" y2="346" gradientUnits="userSpaceOnUse">
<stop stop-color="#1ECAD3" stop-opacity="0"/>
<stop offset="1" stop-color="#1ECAD3" stop-opacity="0.2"/>
</linearGradient>
<linearGradient id="paint2_linear_203_660" x1="57.5" y1="105" x2="57.5" y2="240" gradientUnits="userSpaceOnUse">
<stop stop-color="#1ECAD3" stop-opacity="0"/>
<stop offset="1" stop-color="#1ECAD3" stop-opacity="0.2"/>
</linearGradient>
</defs>
</svg>
