<svg width="1389" height="610" viewBox="0 0 1389 610" fill="none" xmlns="http://www.w3.org/2000/svg">
<g opacity="0.19">
<path d="M1389 789.994C1389 1120.82 1120.82 1389 789.994 1389C459.172 1389 190.988 1120.82 190.988 789.994C190.988 459.172 459.172 190.988 789.994 190.988C1120.82 190.988 1389 459.172 1389 789.994ZM379.396 789.994C379.396 1016.76 563.227 1200.59 789.994 1200.59C1016.76 1200.59 1200.59 1016.76 1200.59 789.994C1200.59 563.227 1016.76 379.396 789.994 379.396C563.227 379.396 379.396 563.227 379.396 789.994Z" fill="#20CDE4"/>
<path d="M958.693 787.549C958.693 882.07 882.069 958.694 787.549 958.694C693.028 958.694 616.404 882.07 616.404 787.549C616.404 693.028 693.028 616.404 787.549 616.404C882.069 616.404 958.693 693.028 958.693 787.549Z" fill="#20CDE4"/>
<path d="M787.549 190.988H1389V807.108L1115.21 531.102L787.549 190.988Z" fill="#20CDE4"/>
<circle cx="783.069" cy="789.997" r="418.958" fill="#20CDE4"/>
<path d="M1388.73 714.07C1378.37 1088.58 1071.52 1389 694.5 1389C310.938 1389 0 1078.06 0 694.5C0 311.882 309.41 1.53018 691.671 0.00564095L694.5 0H1389V714.343L1388.73 714.07Z" fill="url(#paint0_linear_83_257)"/>
</g>
<defs>
<linearGradient id="paint0_linear_83_257" x1="694.5" y1="0" x2="694.5" y2="1389" gradientUnits="userSpaceOnUse">
<stop stop-color="#99D2D3"/>
<stop offset="1" stop-color="#B2D4D6" stop-opacity="0"/>
</linearGradient>
</defs>
</svg>
