<svg width="571" height="571" fill="none" xmlns="http://www.w3.org/2000/svg">
  <path
    d="M285.381.666h.445v-.22h271.706c7.186 0 13.023 5.823 13.023 13.022v274.064h-.356l-.004.442c-1.255 154.309-124.912 279.776-279.6 282.535C134.61 573.295 4.18 448.363.525 292.401-3.226 132.19 126.003.666 285.381.666Z"
    stroke="#BDFBFF" stroke-width=".891" />
  <path
    d="M285.412 74.14h.445v-.164H487.47c5.272 0 9.554 4.273 9.554 9.555v203.363h-.263l-.004.442c-.931 114.504-92.691 207.607-207.476 209.654-115.748 2.067-212.533-90.639-215.245-206.369-2.784-118.884 93.11-216.48 211.376-216.48Z"
    stroke="#8FF9FF" stroke-width=".891" />
  <g clip-path="url(#a)">
    <path opacity=".7"
      d="M275.098 235.602c53.419 0 96.723-43.394 96.723-96.922s-43.304-96.922-96.723-96.922-96.723 43.394-96.723 96.922 43.304 96.922 96.723 96.922Z"
      fill="url(#b)" />
    <path opacity=".7"
      d="M433.328 508.362c65.562 0 118.711-53.257 118.711-118.954S498.89 270.454 433.328 270.454s-118.71 53.257-118.71 118.954 53.148 118.954 118.71 118.954Z"
      fill="url(#c)" />
    <path opacity=".7"
      d="M208.483 437.516c65.562 0 118.71-53.258 118.71-118.955 0-65.696-53.148-118.954-118.71-118.954-65.562 0-118.711 53.258-118.711 118.954 0 65.697 53.149 118.955 118.711 118.955Z"
      fill="url(#d)" />
    <path
      d="M275.097 138.68v.106c-76.165 0-137.923 62.98-136.13 139.699 1.746 74.684 64.078 134.508 138.622 133.174 73.925-1.321 133.02-61.403 133.619-135.294h.172V145.119c0-3.559-2.881-6.439-6.426-6.439H275.097Z"
      fill="#1ECAD3" />
    <path
      d="M286.441 150.046v.106c-76.166 0-137.924 62.981-136.131 139.699 1.747 74.684 64.078 134.508 138.622 133.174 73.925-1.321 133.02-61.402 133.62-135.294h.171V156.486c0-3.56-2.88-6.44-6.426-6.44H286.441Z"
      stroke="#000" stroke-width="1.532" stroke-miterlimit="10" />
    <path opacity=".5"
      d="M263.755 127.313v.106c-76.166 0-137.924 62.981-136.131 139.699 1.747 74.685 64.078 134.508 138.622 133.174 73.925-1.321 133.02-61.402 133.62-135.294h.171V133.76c0-3.56-2.88-6.44-6.426-6.44h-129.85l-.006-.007Z"
      stroke="url(#e)" stroke-width="1.532" stroke-miterlimit="10" />
    <path
      d="M214.54 281.252c-3.342 3.349-8.766 3.349-12.114 0-3.342-3.348-3.342-8.784 0-12.139 3.341-3.348 8.766-3.348 12.114 0 3.342 3.355 3.342 8.791 0 12.139ZM281.207 281.252c-3.341 3.349-8.766 3.349-12.114 0-3.341-3.348-3.341-8.784 0-12.139 3.342-3.348 8.766-3.348 12.114 0 3.342 3.355 3.342 8.791 0 12.139Z"
      fill="#fff" />
    <path
      d="M218.844 305.299c-1.918 0-3.408 1.671-3.204 3.587 1.787 16.762 15.944 29.819 33.147 29.819 17.202 0 31.36-13.057 33.146-29.819.204-1.909-1.286-3.587-3.204-3.587h-59.885Z"
      fill="#000" />
    <path fill-rule="evenodd" clip-rule="evenodd"
      d="M261.458 336.207a16.613 16.613 0 0 0-12.671-5.85 16.616 16.616 0 0 0-12.672 5.85 33.182 33.182 0 0 0 12.672 2.498c4.486 0 8.765-.888 12.671-2.498Z"
      fill="#FF463A" />
    <path
      d="m145.69 282.058-8.067-60.934c2.742 22.046-12.978 44.224-34.399 49.481-13.386 3.184-26.766 6.361-40.152 9.544l4.488 22.31c1.042 5.185 5.668 8.368 10.335 7.1l60.512-16.425c4.666-1.269 7.922-6.229 7.283-11.083v.007Z"
      fill="#1ECAD3" />
    <path
      d="M130.814 169.662c-.639-4.855-5.47-8.197-10.776-7.47-22.963 3.157-45.926 6.307-68.89 9.464-5.312.727-8.772 5.528-7.724 10.713l19.654 97.787c13.387-3.184 26.766-6.361 40.153-9.544 21.421-5.257 37.14-27.435 34.398-49.481-2.274-17.159-4.541-34.311-6.815-51.469Z"
      fill="#fff" />
    <path opacity=".4"
      d="M130.814 169.662c-.639-4.855-5.47-8.197-10.776-7.47-22.963 3.157-45.926 6.307-68.89 9.464-5.312.727-8.772 5.528-7.724 10.713l19.654 97.787c13.387-3.184 26.766-6.361 40.153-9.544 21.421-5.257 37.14-27.435 34.398-49.481-2.274-17.159-4.541-34.311-6.815-51.469Z"
      fill="#000" />
    <path
      d="M113.13 229.823c-1.292.257-1.938.383-3.236.64-.171-1.109-.264-1.664-.435-2.78-.224-1.513 1.041-3.012 2.821-3.362 1.78-.343 3.434.601 3.665 2.113.23 1.513-1.035 3.025-2.815 3.382m-1.384-8.85c-3.678.7-6.228 4.035-5.688 7.43l.283 1.79c0 .039.02.073.027.112v.099c.606 3.791.909 5.687 1.509 9.471a1.594 1.594 0 0 0 1.918 1.321c.91-.192 1.536-1.09 1.391-2.008l-.831-5.297 3.263-.66c3.632-.733 6.189-4.068 5.688-7.43-.501-3.362-3.895-5.528-7.573-4.828M83.576 226.355c-5.628 1.07-8.45 1.605-14.078 2.682-.942.178-1.555 1.103-1.377 2.06.184.958 1.087 1.592 2.03 1.407.659-.125.988-.191 1.654-.317.323-.066.481-.092.804-.158 1.575-.304 3.065.62 3.335 2.054 0 .006 0 .013.007.019l2.208 11.988c.178.951 1.067 1.572 1.99 1.373.923-.191 1.536-1.122 1.358-2.073-.87-4.782-1.305-7.173-2.169-11.955v-.019c-.263-1.427.811-2.84 2.38-3.151.488-.092.738-.145 1.226-.238.494-.092.738-.145 1.232-.237a1.776 1.776 0 0 0 1.398-2.041 1.704 1.704 0 0 0-2.004-1.387l.007-.007ZM99.889 237.893c-2.03 2.959-5.971 3.785-8.838 1.803-2.868-1.981-3.586-6.016-1.556-8.982 2.03-2.959 6.044-3.725 8.918-1.743 2.867 1.981 3.513 5.957 1.476 8.916v.006Zm-6.822-13.354v.007c-5.391 1.023-8.99 6.274-8.027 11.696.962 5.423 6.05 8.936 11.343 7.827 5.292-1.11 8.851-6.301 8.034-11.618h.013l-1.582-9.774c-3.915.746-5.872 1.116-9.78 1.862Z"
      fill="#fff" />
    <path
      d="M97.088 235.965c-.936 1.36-2.748 1.73-4.067.819-1.318-.912-1.634-2.754-.705-4.115.936-1.36 2.768-1.717 4.087-.806 1.318.912 1.62 2.741.685 4.102Z"
      fill="#1ECAD3" />
    <path
      d="M117.388 238.514a.26.26 0 0 1-.138-.185.267.267 0 0 1 .217-.297.238.238 0 0 1 .152.013c.435.185.863.245 1.285.152.461-.099.758-.403.705-.773v-.013c-.059-.383-.534-.442-1.061-.475-.633-.047-1.331-.113-1.437-.826v-.013c-.099-.661.389-1.215 1.147-1.374a2.648 2.648 0 0 1 1.285.073c.08.026.159.099.178.211a.273.273 0 0 1-.217.297c-.053.014-.099 0-.132 0-.356-.119-.725-.158-1.055-.092-.454.092-.711.39-.665.713v.013c.053.364.553.41 1.094.456.626.053 1.298.152 1.404.845v.014c.112.726-.429 1.274-1.2 1.439a2.663 2.663 0 0 1-1.555-.171l-.007-.007ZM120.835 234.519a.31.31 0 0 1 .244-.35.277.277 0 0 1 .336.231c.033.204.047.31.079.521.244-.521.646-1.01 1.352-1.155.929-.192 1.951.343 2.135 1.605v.013c.178 1.248-.619 2.179-1.549 2.371-.712.152-1.232-.139-1.595-.509.099.667.145 1.004.244 1.671a.306.306 0 0 1-.237.35c-.165.033-.31-.066-.33-.231l-.672-4.517h-.007Zm3.553.99v-.013c-.132-.905-.844-1.354-1.575-1.202-.732.152-1.305.885-1.18 1.763v.014c.132.891.896 1.34 1.608 1.195.719-.152 1.279-.832 1.14-1.757h.007Z"
      fill="#fff" />
    <path d="M137.629 221.131c2.742 22.046-12.978 44.224-34.398 49.481-13.387 3.183-26.766 6.36-40.153 9.544"
      stroke="#000" stroke-width="1.532" stroke-miterlimit="10" />
    <path
      d="m91.645 175.449-9.069 1.433a3.223 3.223 0 0 0-2.676 3.686l1.43 9.088a3.218 3.218 0 0 0 3.678 2.682l9.07-1.433a3.223 3.223 0 0 0 2.675-3.686l-1.43-9.088a3.218 3.218 0 0 0-3.678-2.682Z"
      stroke="#000" stroke-width=".766" stroke-linecap="round" stroke-linejoin="round" />
    <path
      d="m88.136 180.798-.58.091a2.793 2.793 0 0 0-2.319 3.195l.091.58a2.789 2.789 0 0 0 3.188 2.325l.58-.092a2.792 2.792 0 0 0 2.32-3.194l-.092-.581a2.788 2.788 0 0 0-3.188-2.324Z"
      stroke="#000" stroke-width=".766" stroke-linecap="round" stroke-linejoin="round" />
    <path
      d="m82.034 176.966.237 1.493a3.22 3.22 0 0 0 3.678 2.682l3.823-.601a3.224 3.224 0 0 0 2.676-3.686l-.237-1.492M94.636 190.816l-.237-1.492a3.22 3.22 0 0 0-3.678-2.682l-3.823.601a3.224 3.224 0 0 0-2.676 3.685l.238 1.493"
      stroke="#000" stroke-width=".766" stroke-linejoin="round" />
    <path d="m87.854 180.843-.738-4.676M88.816 186.946l.732 4.676M91.38 183.412l4.666-.739M85.29 184.37l-4.666.74"
      stroke="#000" stroke-width=".766" stroke-linecap="round" stroke-linejoin="round" />
    <path
      d="M67.56 302.466 43.417 182.369c-1.04-5.185 2.42-9.986 7.725-10.713 22.963-3.157 45.926-6.307 68.889-9.464 5.313-.727 10.137 2.615 10.777 7.47 4.956 37.467 9.919 74.935 14.876 112.396.639 4.854-2.617 9.814-7.284 11.082-20.168 5.475-40.343 10.95-60.512 16.426-4.666 1.268-9.293-1.916-10.334-7.1h.006Z"
      stroke="#000" stroke-width="1.532" stroke-miterlimit="10" />
    <path opacity=".1"
      d="M482.655 392.975c-21.724-9.485-41.299-17.833-63.03-27.317-7.065-3.084-11.264-11.809-9.372-19.496l37.074-150.835c1.892-7.688 10.599-11.868 19.45-9.345 27.228 7.76 54.449 15.514 81.676 23.274 8.852 2.523 13.696 11.049 10.823 19.041l-55.675 154.718c-2.88 7.991-13.88 13.044-20.946 9.96Z"
      fill="#000" />
    <path
      d="M481.41 387.288c-21.724-9.484-43.455-18.962-65.179-28.446-7.065-3.084-11.264-11.809-9.372-19.496l37.074-150.835c1.892-7.688 10.599-11.868 19.45-9.345 27.228 7.76 54.449 15.514 81.676 23.274 8.852 2.523 13.696 11.049 10.822 19.041-18.823 52.308-37.647 104.609-56.471 156.917-2.881 7.992-10.935 11.974-18 8.89Z"
      fill="#fff" />
    <path opacity=".4"
      d="M481.41 387.288c-21.724-9.484-43.455-18.962-65.179-28.446-7.065-3.084-11.264-11.809-9.372-19.496l37.074-150.835c1.892-7.688 10.599-11.868 19.45-9.345 27.228 7.76 54.449 15.514 81.676 23.274 8.852 2.523 13.696 11.049 10.822 19.041-18.823 52.308-37.647 104.609-56.471 156.917-2.881 7.992-10.935 11.974-18 8.89Z"
      fill="#000" />
    <path
      d="M540.794 207.691c-5.8-1.678-8.7-2.516-14.506-4.187-1.938 5.904-8.766 9.127-15.252 7.205-9.445-2.794-14.164-4.194-23.609-6.987-6.492-1.922-10.434-8.183-8.812-13.989-5.8-1.677-8.7-2.516-14.507-4.187-6.565-1.896-13.063 1.228-14.52 6.974-12.352 48.94-24.703 97.88-37.048 146.813-1.45 5.752 1.681 12.264 7 14.556 20.695 8.91 41.391 17.819 62.087 26.722 5.319 2.292 11.336-.687 13.439-6.638 17.934-50.689 35.862-101.379 53.796-152.069 2.109-5.957-1.51-12.318-8.074-14.22l.006.007Z"
      fill="#fff" stroke="#000" stroke-width="1.532" stroke-miterlimit="10" />
    <path
      d="M482.556 293.755c-6.314 3.077-14.012.237-17.42-6.261-3.407-6.499-1.232-14.207 5.082-17.285 6.321-3.077 14.395-.356 17.796 6.143 3.407 6.499.857 14.325-5.458 17.403Zm-.29-30.758v.013c-10.842-3.652-22.04 1.804-24.966 12.159-2.927 10.356 3.117 21.881 13.459 25.692 10.347 3.811 21.42-1.592 24.9-12 .007 0 .014 0 .027.006 2.504-7.694 3.757-11.544 6.255-19.239-7.87-2.655-11.805-3.976-19.675-6.631Z"
      fill="#000" />
    <path
      d="M479.294 287.368c-2.9 1.413-6.479.125-8.048-2.86-1.562-2.985-.52-6.538 2.38-7.952 2.9-1.413 6.558-.152 8.127 2.834 1.562 2.985.441 6.565-2.459 7.978Z"
      fill="#1ECAD3" />
    <path
      d="M481.41 387.288c-21.724-9.484-43.455-18.962-65.179-28.446-7.065-3.084-11.264-11.809-9.372-19.496l37.074-150.835c1.892-7.688 10.599-11.868 19.45-9.345 27.228 7.76 54.449 15.514 81.676 23.274 8.852 2.523 13.696 11.049 10.822 19.041-18.823 52.308-37.647 104.609-56.471 156.917-2.881 7.992-10.935 11.974-18 8.89ZM112.899 331.057c19.76 77.61 89.987 134.997 173.594 134.997 59.109 0 111.527-28.684 144.152-72.914"
      stroke="#000" stroke-width="1.532" stroke-miterlimit="10" />
    <path
      d="M108.86 332.318a4.274 4.274 0 0 1 3.097-5.184 4.265 4.265 0 0 1 5.174 3.104 4.273 4.273 0 0 1-3.097 5.184 4.263 4.263 0 0 1-5.174-3.104Z"
      fill="#fff" />
    <path
      d="M108.312 332.457a4.837 4.837 0 0 0 5.86 3.52c2.584-.647 4.159-3.282 3.513-5.871a4.836 4.836 0 0 0-5.86-3.52c-2.583.647-4.158 3.282-3.513 5.871-.645-2.589.646 2.589 0 0Zm8.272-2.074a3.708 3.708 0 0 1-2.689 4.491 3.699 3.699 0 0 1-4.482-2.694 3.708 3.708 0 0 1 2.689-4.491 3.698 3.698 0 0 1 4.482 2.694c-.494-1.981.494 1.982 0 0Z"
      fill="#000" />
    <path
      d="M433.855 395.841a4.282 4.282 0 0 0-.87-5.977 4.26 4.26 0 0 0-5.964.872 4.281 4.281 0 0 0 .869 5.977 4.262 4.262 0 0 0 5.965-.872Z"
      fill="#fff" />
    <path
      d="M434.31 396.184a4.835 4.835 0 0 1-6.762.991c-2.136-1.592-2.577-4.636-.989-6.776a4.836 4.836 0 0 1 6.763-.991c2.135 1.592 2.577 4.637.988 6.776 1.589-2.139-1.588 2.14 0 0Zm-6.835-5.105a3.715 3.715 0 0 0 .758 5.185 3.696 3.696 0 0 0 5.174-.76 3.712 3.712 0 0 0-.758-5.184 3.696 3.696 0 0 0-5.174.759c1.22-1.638-1.219 1.638 0 0Z"
      fill="#000" />
    <path
      d="m492.021 193.603 20.861 6.03M215.449 242.299a33.385 33.385 0 0 0-6.966-.734 33.525 33.525 0 0 0-26.074 12.47M268.625 242.299a33.402 33.402 0 0 1 6.967-.734 33.525 33.525 0 0 1 26.074 12.47"
      stroke="#000" stroke-width="1.532" stroke-miterlimit="10" />
  </g>
  <defs>
    <radialGradient id="b" cx="0" cy="0" r="1" gradientUnits="userSpaceOnUse"
      gradientTransform="matrix(96.7231 0 0 96.9216 275.098 138.68)">
      <stop stop-color="#1ECAD3" />
      <stop offset="1" stop-color="#1ECAD3" stop-opacity="0" />
    </radialGradient>
    <radialGradient id="c" cx="0" cy="0" r="1" gradientUnits="userSpaceOnUse"
      gradientTransform="matrix(118.711 0 0 118.954 433.328 389.408)">
      <stop stop-color="#1ECAD3" />
      <stop offset="1" stop-color="#1ECAD3" stop-opacity="0" />
    </radialGradient>
    <radialGradient id="d" cx="0" cy="0" r="1" gradientUnits="userSpaceOnUse"
      gradientTransform="matrix(118.711 0 0 118.954 208.483 318.561)">
      <stop stop-color="#1ECAD3" />
      <stop offset="1" stop-color="#1ECAD3" stop-opacity="0" />
    </radialGradient>
    <linearGradient id="e" x1="167.229" y1="360.645" x2="399.048" y2="129.301" gradientUnits="userSpaceOnUse">
      <stop stop-opacity="0" />
      <stop offset=".86" stop-opacity=".63" />
      <stop offset="1" />
    </linearGradient>
    <clipPath id="a">
      <path fill="#fff" transform="translate(42.666 41.758)" d="M0 0h517.44v466.604H0z" />
    </clipPath>
  </defs>
</svg>