<svg width="137" height="24" fill="none" xmlns="http://www.w3.org/2000/svg"><path d="m39.58 16.254 1.25 2.136h2.136L36.678 7.83h-1.975l-6.247 10.56h2.136l1.25-2.136h7.738Zm-4.03-6.812 3.063 5.2h-6.126l3.063-5.2ZM43.772 7.83v7.779c0 2.418 1.451 2.902 3.829 2.902h4.635c2.378 0 3.83-.484 3.83-2.902v-7.78H54.21v7.78c0 .766-.12 1.29-1.934 1.29H47.56c-1.774 0-1.935-.524-1.935-1.29v-7.78h-1.854ZM64.086 18.39V9.482h5.078V7.83h-12.01v1.652h5.037v8.908h1.895ZM79.563 18.51c2.741 0 3.83-1.168 3.83-4.03v-2.74c0-2.862-1.13-4.031-3.83-4.031H73.76c-2.74 0-3.829 1.169-3.829 4.03v2.741c0 2.862 1.129 4.03 3.83 4.03h5.803Zm-7.739-3.506v-3.788c0-1.33.605-1.895 2.096-1.895h5.482c1.491 0 2.096.524 2.096 1.895v3.788c0 1.33-.605 1.895-2.096 1.895H73.88c-1.45 0-2.055-.565-2.055-1.895ZM93.791 7.83h-8.504v10.56h1.854v-3.95h6.368c3.224 0 3.386-1.37 3.386-3.627.04-2.5-1.129-2.983-3.104-2.983Zm1.25 3.829c0 .806-.444 1.169-1.451 1.169h-6.45V9.482h6.329c1.209 0 1.572.283 1.572 1.21v.967ZM98.346 18.39l1.25-2.136h7.738l1.25 2.136h2.136l-6.248-10.56h-1.975L96.25 18.39h2.096Zm5.28-8.948 3.063 5.2h-6.126l3.063-5.2ZM116.362 9.361h1.451c3.467 0 3.467.242 3.507 1.653v.242h1.774v-.605c0-2.136-1.21-2.902-4.474-2.902h-2.943c-2.781 0-4.433.484-4.433 3.063 0 3.023 1.854 3.184 5.763 3.184h2.58c1.693 0 1.935.282 1.935 1.33 0 1.21-.323 1.613-2.298 1.613h-4.232c-1.814 0-1.975-.565-1.975-1.21v-.967h-1.773v1.008c0 2.459 2.015 2.78 3.99 2.78h3.789c1.612 0 4.272 0 4.272-2.901v-.645c0-1.894-1.249-2.74-4.031-2.74h-4.03c-2.136 0-2.257-.404-2.257-1.33.121-1.371.604-1.573 3.385-1.573ZM133.009 12.223h-4.03c-2.136 0-2.257-.403-2.257-1.33 0-1.29.483-1.532 3.305-1.532h1.451c3.466 0 3.466.242 3.506 1.653v.242h1.774v-.605c0-2.136-1.209-2.902-4.474-2.902h-2.902c-2.781 0-4.434.484-4.434 3.063 0 3.023 1.854 3.184 5.764 3.184h2.58c1.692 0 1.934.282 1.934 1.33 0 1.21-.322 1.613-2.297 1.613h-4.232c-1.814 0-1.975-.565-1.975-1.21v-.967h-1.774v1.008c0 2.459 2.016 2.78 3.991 2.78h3.788c1.612 0 4.273 0 4.273-2.901v-.645c.04-1.935-1.21-2.781-3.991-2.781Z" fill="#1E1E1E"/><path d="M4.676 15.528c.766-.12 1.37-.161 2.096-.161.685 0 1.33.04 2.096.161.201.04.443-.04.443-.322 0-.242-.08-.484-.121-.686-.04-.201-.161-.362-.605-.483-.403-.121-1.168-.282-1.813-.282s-1.411.16-1.814.282c-.443.161-.524.282-.605.483-.04.202-.12.444-.12.686 0 .282.201.362.443.322Z" fill="#E21318"/><path d="M0 18.913c0 2.62 2.136 4.797 4.796 4.797h6.369a.98.98 0 0 0 .967-.968v-8.141a2.15 2.15 0 0 0-2.136-2.136H.484a.466.466 0 0 0-.484.483v5.965Zm4.716 3.185.201-.242h3.507l.201.242h-3.91Zm3.144-.968.16.202H5.36l.162-.202H7.86Zm-3.346-.765c-.201 0-.443-.081-.645-.444-.04-.08-.08-.161-.16-.282h6.045c-.04.08-.08.201-.161.282-.202.323-.444.444-.645.444H4.514Zm4.998 2.015L7.9 20.848h.604l1.935 1.532h-.927Zm-6.207-4.555c.161-1.25.282-2.297.403-3.224.04-.363.202-.645.847-.887.443-.161 1.168-.322 2.136-.322.967 0 1.733.201 2.136.322.645.242.806.524.846.887.121.927.283 2.015.403 3.224 0 .08.04.363-.04.726a2.81 2.81 0 0 1-.242.766H3.507a2.811 2.811 0 0 1-.242-.766c.04-.363.04-.645.04-.726Zm1.572 3.023h.605L3.869 22.38H2.781l2.096-1.532Z" fill="#E21318"/><path d="M4.877 18.39c.282-.081.282-.565.12-.887-.16-.323-.443-.403-.725-.323-.282.081-.403.323-.242.645.121.283.564.645.847.565ZM8.504 17.503c-.16.322-.12.806.121.887.283.08.686-.282.847-.565.161-.322 0-.564-.242-.645-.282-.08-.564 0-.726.323Z" fill="#E21318"/><path d="M20.838 3.8c.12 0 .201-.081.201-.202 0-.121-.08-.202-.201-.202-.121 0-.202.08-.202.202-.04.08.08.201.202.201ZM15.92 6.983h2.54V4.162h-2.54a.275.275 0 0 0-.282.282V6.66c0 .16.12.322.282.322Zm1.128-1.169a.98.98 0 0 1 .968.967h-.202a.765.765 0 1 0-1.531 0h-.202a.98.98 0 0 1 .967-.967Z" fill="#2071B7"/><path d="M14.67 11.94h9.472a.466.466 0 0 0 .484-.483V5.452c0-2.62-2.136-4.797-4.796-4.797h-6.368a.98.98 0 0 0-.968.968v8.141c0 1.21.967 2.177 2.177 2.177Zm2.097-.886c0 .08-.081.121-.121.121h-.847c-.08 0-.12-.04-.12-.12v-.847h1.088v.846Zm4.675 0c0 .08-.08.121-.12.121h-.847c-.08 0-.121-.04-.121-.12v-.847h1.088v.846Zm.605-1.25c0 .081-.04.122-.121.122h-6.691c-.08 0-.121-.04-.121-.121V9.32c0-.08.04-.12.12-.12h6.692c.08 0 .12.04.12.12v.484Zm-8.021-4.917c0-.16.12-.241.242-.241h.12c0-.162.081-.323.323-.323h.685v-.725c0-.363.282-.645.645-.645h5.079c.362 0 .644.282.644.645v.725h.686c.242 0 .282.202.322.323h.121c.161 0 .242.12.242.241v1.37c0 .162-.121.243-.242.243h-.403c-.161 0-.242-.121-.242-.242v-1.37c0-.162.121-.242.242-.242h.08c0-.121-.04-.121-.12-.121h-.686v4.353h-6.368V4.525h-.685c-.08 0-.08.04-.121.12h.08c.162 0 .242.121.242.242v1.37c0 .162-.12.243-.241.243h-.403c-.162 0-.242-.121-.242-.242v-1.37Z" fill="#2071B7"/><path d="M16.203 7.547a.466.466 0 0 0-.483.484c0 .282.201.484.483.484a.466.466 0 0 0 .484-.484.466.466 0 0 0-.484-.484ZM16.284 3.8c.12 0 .201-.081.201-.202 0-.121-.08-.202-.201-.202-.121 0-.202.08-.202.202 0 .08.08.201.202.201ZM20.919 7.547a.466.466 0 0 0-.484.484c0 .282.202.484.484.484a.466.466 0 0 0 .483-.484.49.49 0 0 0-.483-.484ZM18.662 6.983H21.2c.161 0 .282-.12.282-.282V4.484a.275.275 0 0 0-.282-.282h-2.54v2.781ZM17.614 3.96h1.934c.162 0 .283-.12.283-.282v-.242a.275.275 0 0 0-.283-.282h-1.934a.276.276 0 0 0-.283.282v.282c0 .121.122.242.283.242Z" fill="#2071B7"/><path d="m10.069 6.508-1.555.232.083.558 1.555-.232-.083-.558ZM8.827 7.669c-.08 0-.161.08-.121.201l.08.524c0 .08.081.161.202.121l1.25-.202c.08 0 .16-.08.12-.201l-.08-.524c0-.08-.08-.161-.202-.121l-1.25.202ZM6.12 7.111l-1.556.232.084.558 1.554-.232-.083-.558ZM9.695 3.981l-3.548.531.083.558 3.548-.53-.083-.559ZM5.084 8.214l-1.396.207.06.4 1.395-.209-.06-.398ZM3.55 8.414l-.837.126.06.398.837-.125-.06-.399ZM3.275 9.047l-.479.071.06.399.478-.071-.06-.4ZM3.916 8.928 3.438 9l.06.398.478-.072-.06-.398ZM8.09 6.79l-1.555.232.084.559 1.554-.233-.083-.558Z" fill="#96C025"/><path d="M11.608 11.94a.466.466 0 0 0 .484-.483V1.14a.466.466 0 0 0-.484-.484H4.756C2.136.655 0 2.791 0 5.452v6.005c0 .282.202.484.484.484h11.124ZM2.015 4.606l7.699-1.169c.242-.04.483.121.524.403l.645 4.434a.455.455 0 0 1-.403.524L2.82 9.926a.455.455 0 0 1-.524-.403l-.644-4.434c-.04-.202.12-.443.362-.484Z" fill="#96C025"/><path d="m4.142 7.392-1.555.232.083.558 1.555-.232-.083-.558ZM2.7 7.225l.968-.161c.12 0 .16-.12.16-.202l-.08-.564c0-.12-.12-.161-.242-.161l-.967.161c-.12 0-.161.121-.161.202l.08.564c.04.12.162.161.242.161Z" fill="#96C025"/><path d="M20.314 11.054c0 .08.08.121.12.121h.847c.08 0 .121-.04.121-.12v-.847h-1.088v.846ZM15.68 11.054c0 .08.08.121.12.121h.846c.081 0 .121-.04.121-.12v-.847H15.68v.846ZM21.887 9.2h-6.65c-.082 0-.122.04-.122.12v.485c0 .08.04.12.121.12h6.69c.082 0 .122-.04.122-.12V9.32c0-.08-.08-.121-.161-.121ZM17.05 6.016c.443 0 .765.362.765.766h.202a.98.98 0 0 0-.968-.968.98.98 0 0 0-.967.968h.202c0-.404.322-.766.765-.766Z" fill="#fff"/><path d="M14.268 6.5h.403c.162 0 .242-.122.242-.243v-1.37c0-.161-.12-.242-.242-.242h-.08c0-.12.04-.12.12-.12h.686v4.352h6.328V4.524h.685c.08 0 .08.04.12.121h-.08c-.161 0-.242.121-.242.242v1.37c0 .162.121.242.242.242h.403c.162 0 .242-.12.242-.242v-1.37c0-.161-.12-.242-.242-.242h-.12c0-.161-.081-.322-.323-.322h-.685v-.726a.637.637 0 0 0-.645-.645h-5.038a.637.637 0 0 0-.645.645v.726h-.685c-.242 0-.283.201-.323.322h-.12c-.162 0-.243.121-.243.242v1.37c0 .162.121.242.242.242Zm1.935 2.015a.466.466 0 0 1-.484-.484c0-.282.202-.484.484-.484s.483.202.483.484a.466.466 0 0 1-.483.484Zm4.716 0a.466.466 0 0 1-.484-.484c0-.282.202-.484.484-.484s.483.202.483.484a.49.49 0 0 1-.483.484Zm.241-4.353c.162 0 .283.12.283.282V6.66c0 .16-.121.282-.283.282h-2.539V4.12h2.54v.04Zm-.322-.807c.12 0 .202.081.202.202 0 .12-.081.202-.202.202-.12 0-.201-.081-.201-.202-.04-.12.08-.202.201-.202Zm-3.507.081c0-.161.121-.282.283-.282h1.934c.162 0 .282.12.282.282v.282c0 .161-.12.282-.282.282h-1.934a.276.276 0 0 1-.283-.282v-.282Zm-1.047-.08c.12 0 .201.08.201.201 0 .12-.08.202-.201.202-.121 0-.202-.081-.202-.202 0-.12.08-.202.201-.202Zm-.645 1.088c0-.162.12-.282.282-.282h2.539v2.821h-2.54a.275.275 0 0 1-.281-.282V4.444Z" fill="#fff"/><path d="m17.21 17.544 1.21-1.532-.08-.04-1.21 1.531.08.04ZM17.942 20.345l-.258.721.949.34.258-.722-.95-.339ZM18.548 18.595l-.258.72.949.34.258-.721-.95-.34ZM19.79 18.47c.081.04.162 0 .202-.08l.524-1.451c.04-.08 0-.162-.08-.202l-1.855-.645-1.209 1.532 2.418.846ZM16.338 17.831l-.258.721.949.34.258-.721-.95-.34ZM16.028 18.663l-.257.721.948.34.258-.722-.949-.34ZM17.695 14.6c-.04.082 0 .122.08.162l2.58.927c.08.04.12 0 .16-.08l.202-.565-2.82-1.007-.202.564ZM20.717 14.6l-2.58-.926c-.08-.04-.12 0-.16.08l-.041.121 2.821 1.008.04-.121c.041-.08 0-.161-.08-.161Z" fill="#F39300"/><path d="M12.494 23.227c0 .282.202.483.484.483h6.852c2.62 0 4.796-2.136 4.796-4.796v-6.006a.466.466 0 0 0-.484-.483H12.978a.466.466 0 0 0-.484.483v10.319Zm9.029-5.764-2.016 4.595c-.12.282-.443.403-.725.282l2.499-5.643c.282.201.363.524.242.766Zm-4.595-3.507c.242-.443.766-.645 1.209-.483l2.7.967a.996.996 0 0 1 .645 1.169l-.201.846-4.756-1.733.403-.766Zm-2.136 7.255 1.692-6.368 4.797 1.733-2.7 6.006a.513.513 0 0 1-.565.282c-.12.08-.282.12-.403.08l-2.297-.806c-.162-.04-.242-.161-.283-.322a.518.518 0 0 1-.241-.605Z" fill="#F39300"/><path d="m15.707 19.531-.258.721.949.34.258-.722-.949-.339ZM15.84 21.372l.242.08.242-.685-.968-.322a.84.84 0 0 0 .484.927ZM16.405 17.261l.241.08 1.21-1.53-.847-.283c-.08-.04-.161 0-.201.08l-.524 1.452c0 .04.04.16.12.201ZM16.509 20.788l-.258.721.949.34.258-.721-.95-.34ZM16.83 19.92l-.257.72.95.34.257-.721-.95-.34ZM17.372 21.896l.242.081a.8.8 0 0 0 .967-.443l-.967-.323-.242.685ZM18.265 19.475l-.258.721.95.34.257-.722-.95-.339ZM17.14 19.09l-.259.72.95.34.257-.722-.949-.339ZM17.426 18.206l-.257.721.948.339.258-.721-.949-.34Z" fill="#F39300"/><path d="m7.9 20.848 1.612 1.532h.927l-1.935-1.532H7.9ZM5.482 20.848h-.605L2.781 22.38H3.87l1.613-1.532ZM8.02 21.332l-.16-.202H5.521l-.162.202h2.66ZM4.917 21.856l-.201.241h3.91l-.202-.241H4.917ZM9.634 19.961c.04-.08.08-.16.16-.282H3.75c.04.08.08.202.161.282.202.323.444.444.645.444H9.07c.121-.04.363-.121.565-.444ZM3.587 19.317h6.288a2.81 2.81 0 0 0 .242-.766c.08-.363.04-.645.04-.725-.161-1.25-.282-2.298-.403-3.225-.04-.363-.202-.645-.847-.887-.443-.16-1.168-.322-2.136-.322-.967 0-1.733.201-2.136.322-.645.242-.806.524-.846.887-.121.927-.283 2.015-.403 3.225 0 .08-.04.362.04.725 0 .242.08.524.161.766Zm5.925-1.491c-.161.322-.564.685-.846.564-.283-.08-.283-.564-.121-.887.16-.322.443-.403.725-.322.242.08.363.322.242.645Zm-5.2-3.265c.04-.202.162-.363.605-.484.403-.12 1.169-.282 1.814-.282s1.41.161 1.814.282c.443.161.524.282.604.484.04.201.121.443.121.685 0 .242-.242.322-.443.322a12.548 12.548 0 0 0-2.096-.16c-.685 0-1.33.04-2.096.16-.201.04-.443-.04-.443-.322.04-.242.08-.484.12-.685Zm-.04 2.62c.282-.081.565 0 .726.322.161.323.12.806-.121.887-.282.08-.685-.282-.847-.564-.16-.323-.04-.565.242-.645ZM2.822 9.925l7.698-1.169c.242-.04.444-.282.403-.524L10.278 3.8c-.04-.242-.282-.444-.524-.403L2.016 4.605c-.242.04-.444.282-.403.524l.644 4.434c.081.241.323.403.565.362ZM2.7 8.555l.846-.121.08.403-.846.121-.08-.403Zm.161.967-.04-.403.483-.08.04.403-.483.08Zm.645-.12-.08-.404.483-.08.04.403-.443.08Zm.242-.605-.04-.403 1.41-.202.04.403-1.41.202Zm2.861-1.21-.08-.564 1.572-.242.08.565-1.572.242Zm3.628.04.08.525c0 .08-.04.161-.12.201l-1.25.202a.222.222 0 0 1-.201-.121l-.08-.524c0-.08.04-.161.12-.202l1.25-.201c.12 0 .201.04.201.12ZM10.077 6.5l.08.565-1.572.241-.08-.564 1.572-.242ZM9.714 3.96l.08.564-3.546.524-.08-.564 3.546-.524ZM6.127 7.104l.08.564-1.571.242-.081-.564 1.572-.242Zm-1.895.846-1.571.242-.081-.564 1.572-.242.08.564ZM2.58 6.257l.967-.16c.121 0 .202.04.242.16l.08.565c0 .12-.04.201-.16.201l-.968.162c-.12 0-.201-.04-.201-.162L2.419 6.5c-.04-.12.04-.201.16-.242ZM21.483 15.609a.996.996 0 0 0-.645-1.17l-2.7-.967c-.484-.16-1.008.04-1.21.484l-.403.766 4.797 1.733.161-.846Zm-.967 0c-.04.08-.081.08-.162.08l-2.58-.927c-.08-.04-.08-.08-.08-.161l.202-.564 2.821 1.007-.201.565Zm.282-.887-.04.12-2.822-1.007.04-.12c.04-.081.081-.081.162-.081l2.58.927c.08.04.12.12.08.16ZM15.034 21.775c.04.121.121.283.282.323l2.298.806c.161.04.282 0 .403-.08.242.04.483-.081.564-.283l2.7-6.005-4.796-1.734-1.693 6.369c-.08.282.04.524.242.604Zm3.063-2.337-.241.685-.968-.323.242-.685.967.323Zm-.927-.524.242-.686.968.323-.242.725-.968-.362Zm.605 1.37-.242.685-.967-.322.242-.685.967.322Zm-.322.847-.242.685-.968-.323.242-.685.968.323Zm.16.846-.241-.08.242-.686.967.323c-.12.403-.564.604-.967.443Zm1.008-.605-.967-.322.242-.685.967.322-.242.685Zm.323-.846-.967-.323.241-.685.968.323-.242.685Zm.322-.846-.967-.323.242-.685.967.322-.242.686Zm1.17-2.983c.08.04.12.12.08.201l-.524 1.451c-.04.081-.121.121-.202.081l-2.418-.846 1.21-1.532 1.853.645Zm-2.016-.685-1.21 1.531-.08-.04 1.21-1.532.08.04Zm-2.096 1.007.524-1.45c.04-.081.12-.122.201-.081l.847.282-1.21 1.531-.241-.08c-.121 0-.161-.121-.121-.202Zm0 .806.967.323-.242.685-.967-.322.242-.686Zm-.323.847.968.322-.242.686-.967-.323.242-.685Zm-.282.887.968.322-.242.685-.968-.322.242-.685Zm-.322.846.967.322-.242.686-.241-.081c-.404-.12-.605-.524-.484-.927ZM21.322 16.777l-2.499 5.643c.282.121.605-.04.726-.282l2.015-4.595c.08-.322 0-.645-.242-.766Z" fill="#fff"/></svg>