<svg width="402" height="156" viewBox="0 0 402 156" fill="none" xmlns="http://www.w3.org/2000/svg">
<mask id="mask0_83_493" style="mask-type:luminance" maskUnits="userSpaceOnUse" x="0" y="0" width="402" height="156">
<path fill-rule="evenodd" clip-rule="evenodd" d="M0 0H402V155.775H0V0Z" fill="white"/>
</mask>
<g mask="url(#mask0_83_493)">
<path fill-rule="evenodd" clip-rule="evenodd" d="M349.165 71.6878V71.7041H323.256V49.2777H323.282C323.397 37.1032 334.964 27.2346 349.165 27.2346C363.443 27.2346 375.052 37.2028 375.052 49.4605C375.052 61.7182 363.443 71.6878 349.165 71.6878M349.026 -1.52588e-05C319.814 -1.52588e-05 296.05 22.2477 296.05 49.5941V64.0144C296.05 64.32 296.1 64.6093 296.116 64.9108C296.1 65.17 296.042 65.4129 296.042 65.6762V141.94C296.042 149.349 302.026 155.356 309.415 155.356C316.798 155.356 322.788 149.349 322.788 141.94V99.1856H349.026C378.235 99.1856 402 76.9379 402 49.5941C402 22.2477 378.235 -1.52588e-05 349.026 -1.52588e-05" fill="#1EBDC1"/>
<path fill-rule="evenodd" clip-rule="evenodd" d="M125.265 0.190643H105.71C105.689 0.190643 105.668 0.190643 105.647 0.190643H33.0815C33.0611 0.190643 33.0448 0.190643 33.019 0.190643H13.4596C5.98388 0.190643 -0.0810547 6.27309 -0.0810547 13.7704C-0.0810547 21.2718 5.98388 27.3502 13.4596 27.3502H26.6289C26.637 27.3502 26.6452 27.3543 26.6534 27.3543H33.0856C45.6168 27.3829 55.8081 36.5489 55.8081 47.8105C55.8081 47.8733 55.8244 47.932 55.8244 47.9906V142.21C55.8244 149.706 61.8852 155.79 69.3637 155.79C76.8435 155.79 82.9044 149.706 82.9044 142.21V47.9743C82.9084 47.9197 82.922 47.8651 82.922 47.8105C82.922 36.5489 93.1078 27.3829 105.643 27.3543H115.417C115.425 27.3543 115.437 27.3502 115.445 27.3502H125.265C132.745 27.3502 138.806 21.2718 138.806 13.7704C138.806 6.27309 132.745 0.190643 125.265 0.190643" fill="#1EBDC1"/>
<path fill-rule="evenodd" clip-rule="evenodd" d="M236.088 113.777C216.44 133.48 184.579 133.48 164.931 113.777C145.28 94.072 145.28 62.1235 164.931 42.4149C184.579 22.7104 216.44 22.7104 236.088 42.4149C255.734 62.1235 255.734 94.072 236.088 113.777M200.607 0.0906372V0.153399C157.8 0.153399 122.978 35.0777 122.978 78.0027C122.978 120.935 157.8 155.857 200.607 155.857C243.192 155.857 277.848 121.281 278.203 78.6562H278.295V0.0906372H200.607" fill="#1EBDC1"/>
<path fill-rule="evenodd" clip-rule="evenodd" d="M218.414 94.0468C209.285 103.239 194.478 103.239 185.349 94.0468C176.216 84.8536 176.216 69.9558 185.349 60.764C194.478 51.5709 209.285 51.5709 218.414 60.764C227.548 69.9558 227.548 84.8536 218.414 94.0468" fill="white"/>
</g>
</svg>
